REM DIRINDEX 1\2,1\3,1\4
REM DIRNAME cjc105,folder01,folder02,folder03
TITLE ""
FILE "DISC1Track11.mp3" MP3
  TRACK 01 AUDIO
    TITLE "0:"
    INDEX 01 00:00:00
  TRACK 02 AUDIO
    TITLE "4:cjc105_0767"
    INDEX 01 00:00:15
  TRACK 03 AUDIO
    TITLE "0:"
    INDEX 01 00:07:05
  TRACK 04 AUDIO
    TITLE "2:cjc105_0768"
    INDEX 01 00:07:45
  TRACK 05 AUDIO
    TITLE "2:cjc105_0769"
    INDEX 01 00:11:35
  TRACK 06 AUDIO
    TITLE "2:cjc105_0770"
    INDEX 01 00:14:62
  TRACK 07 AUDIO
    TITLE "2:cjc105_0771"
    INDEX 01 00:17:69
  TRACK 08 AUDIO
    TITLE "2:cjc105_0772"
    INDEX 01 00:22:21
  TRACK 09 AUDIO
    TITLE "2:cjc105_0773"
    INDEX 01 00:25:43
  TRACK 10 AUDIO
    TITLE "2:cjc105_0774"
    INDEX 01 00:28:29
  TRACK 11 AUDIO
    TITLE "2:cjc105_0775"
    INDEX 01 00:31:18
  TRACK 12 AUDIO
    TITLE "2:cjc105_0776"
    INDEX 01 00:34:47
  TRACK 13 AUDIO
    TITLE "2:cjc105_0777"
    INDEX 01 00:38:39
  TRACK 14 AUDIO
    TITLE "2:cjc105_0778"
    INDEX 01 00:42:21
  TRACK 15 AUDIO
    TITLE "2:cjc105_0779"
    INDEX 01 00:45:04
  TRACK 16 AUDIO
    TITLE "2:cjc105_0780"
    INDEX 01 00:48:71
  TRACK 17 AUDIO
    TITLE "2:cjc105_0781"
    INDEX 01 00:52:61
  TRACK 18 AUDIO
    TITLE "2:cjc105_0782"
    INDEX 01 00:56:51
  TRACK 19 AUDIO
    TITLE "2:cjc105_0783"
    INDEX 01 00:59:57
  TRACK 20 AUDIO
    TITLE "2:cjc105_0784"
    INDEX 01 01:04:01
  TRACK 21 AUDIO
    TITLE "2:cjc105_0785"
    INDEX 01 01:07:02
  TRACK 22 AUDIO
    TITLE "2:cjc105_0786"
    INDEX 01 01:10:06
  TRACK 23 AUDIO
    TITLE "2:cjc105_0787"
    INDEX 01 01:14:29
  TRACK 24 AUDIO
    TITLE "2:cjc105_0788"
    INDEX 01 01:17:61
  TRACK 25 AUDIO
    TITLE "2:cjc105_0789"
    INDEX 01 01:21:16
  TRACK 26 AUDIO
    TITLE "2:cjc105_0790"
    INDEX 01 01:24:47
  TRACK 27 AUDIO
    TITLE "2:cjc105_0791"
    INDEX 01 01:28:00
  TRACK 28 AUDIO
    TITLE "2:cjc105_0792"
    INDEX 01 01:31:34
  TRACK 29 AUDIO
    TITLE "2:cjc105_0793"
    INDEX 01 01:34:40
  TRACK 30 AUDIO
    TITLE "2:cjc105_0794"
    INDEX 01 01:38:51
  TRACK 31 AUDIO
    TITLE "2:cjc105_0795"
    INDEX 01 01:41:71
  TRACK 32 AUDIO
    TITLE "2:cjc105_0796"
    INDEX 01 01:45:44
  TRACK 33 AUDIO
    TITLE "2:cjc105_0797"
    INDEX 01 01:49:04
  TRACK 34 AUDIO
    TITLE "2:cjc105_0798"
    INDEX 01 01:52:48
  TRACK 35 AUDIO
    TITLE "2:cjc105_0799"
    INDEX 01 01:55:40
  TRACK 36 AUDIO
    TITLE "2:cjc105_0800"
    INDEX 01 01:59:22
  TRACK 37 AUDIO
    TITLE "2:cjc105_0801"
    INDEX 01 02:02:67
  TRACK 38 AUDIO
    TITLE "2:cjc105_0802"
    INDEX 01 02:06:05
  TRACK 39 AUDIO
    TITLE "2:cjc105_0803"
    INDEX 01 02:09:17
  TRACK 40 AUDIO
    TITLE "2:cjc105_0804"
    INDEX 01 02:13:56
  TRACK 41 AUDIO
    TITLE "2:cjc105_0805"
    INDEX 01 02:17:47
  TRACK 42 AUDIO
    TITLE "2:cjc105_0806"
    INDEX 01 02:21:00
  TRACK 43 AUDIO
    TITLE "2:cjc105_0807"
    INDEX 01 02:24:06
  TRACK 44 AUDIO
    TITLE "2:cjc105_0808"
    INDEX 01 02:27:32
  TRACK 45 AUDIO
    TITLE "2:cjc105_0809"
    INDEX 01 02:30:46
  TRACK 46 AUDIO
    TITLE "2:cjc105_0810"
    INDEX 01 02:34:07
  TRACK 47 AUDIO
    TITLE "2:cjc105_0811"
    INDEX 01 02:37:64
  TRACK 48 AUDIO
    TITLE "2:cjc105_0812"
    INDEX 01 02:40:70
  TRACK 49 AUDIO
    TITLE "2:cjc105_0813"
    INDEX 01 02:44:09
  TRACK 50 AUDIO
    TITLE "2:cjc105_0814"
    INDEX 01 02:48:32
  TRACK 51 AUDIO
    TITLE "2:cjc105_0815"
    INDEX 01 02:51:52
  TRACK 52 AUDIO
    TITLE "2:cjc105_0816"
    INDEX 01 02:55:52
  TRACK 53 AUDIO
    TITLE "2:cjc105_0817"
    INDEX 01 02:59:67
  TRACK 54 AUDIO
    TITLE "2:cjc105_0818"
    INDEX 01 03:03:42
  TRACK 55 AUDIO
    TITLE "2:cjc105_0819"
    INDEX 01 03:07:38
  TRACK 56 AUDIO
    TITLE "2:cjc105_0820"
    INDEX 01 03:10:16
  TRACK 57 AUDIO
    TITLE "2:cjc105_0821"
    INDEX 01 03:13:36
  TRACK 58 AUDIO
    TITLE "2:cjc105_0822"
    INDEX 01 03:16:35
  TRACK 59 AUDIO
    TITLE "2:cjc105_0823"
    INDEX 01 03:19:68
  TRACK 60 AUDIO
    TITLE "2:cjc105_0824"
    INDEX 01 03:22:45
  TRACK 61 AUDIO
    TITLE "2:cjc105_0825"
    INDEX 01 03:26:17
  TRACK 62 AUDIO
    TITLE "2:cjc105_0826"
    INDEX 01 03:29:29
  TRACK 63 AUDIO
    TITLE "2:cjc105_0827"
    INDEX 01 03:32:34
  TRACK 64 AUDIO
    TITLE "2:cjc105_0828"
    INDEX 01 03:35:71
  TRACK 65 AUDIO
    TITLE "2:cjc105_0829"
    INDEX 01 03:38:50
  TRACK 66 AUDIO
    TITLE "2:cjc105_0830"
    INDEX 01 03:41:74
  TRACK 67 AUDIO
    TITLE "2:cjc105_0831"
    INDEX 01 03:45:24
  TRACK 68 AUDIO
    TITLE "2:cjc105_0832"
    INDEX 01 03:48:64
  TRACK 69 AUDIO
    TITLE "2:cjc105_0833"
    INDEX 01 03:51:60
  TRACK 70 AUDIO
    TITLE "2:cjc105_0834"
    INDEX 01 03:55:09
  TRACK 71 AUDIO
    TITLE "2:cjc105_0835"
    INDEX 01 03:59:15
  TRACK 72 AUDIO
    TITLE "2:cjc105_0836"
    INDEX 01 04:02:56
  TRACK 73 AUDIO
    TITLE "2:cjc105_0837"
    INDEX 01 04:06:56
  TRACK 74 AUDIO
    TITLE "2:cjc105_0838"
    INDEX 01 04:10:09
  TRACK 75 AUDIO
    TITLE "2:cjc105_0839"
    INDEX 01 04:13:74
  TRACK 76 AUDIO
    TITLE "2:cjc105_0840"
    INDEX 01 04:16:70
  TRACK 77 AUDIO
    TITLE "2:cjc105_0841"
    INDEX 01 04:20:60
  TRACK 78 AUDIO
    TITLE "2:cjc105_0842"
    INDEX 01 04:23:66
  TRACK 79 AUDIO
    TITLE "2:cjc105_0843"
    INDEX 01 04:27:35
  TRACK 80 AUDIO
    TITLE "2:cjc105_0844"
    INDEX 01 04:30:19
  TRACK 81 AUDIO
    TITLE "0:"
    INDEX 01 04:32:73
